<svg xmlns="http://www.w3.org/2000/svg" height="800" width="1200" viewBox="-23.59026 -8.9563 204.44892 53.7378"><path fill="#512888" d="M100.2825 0c-2.135 0-3.7642.3975-4.8417 1.1807-1.1144.8106-1.6788 2.1083-1.6788 3.8583 0 1.0207.288 1.898.8574 2.6055.5407.6732 1.2251 1.2627 2.0333 1.752.7856.475 1.6444.9031 2.5556 1.2725.88.3575 1.7105.732 2.4668 1.1133.7312.3688 1.3472.783 1.831 1.2305.4325.4.6425.8853.6425 1.4834 0 .4487-.0773.8165-.2304 1.0927-.1488.27-.3655.4875-.6436.6475-.3012.1738-.6718.3014-1.1006.3789-.4494.0813-.9608.1221-1.5195.1221-.6131 0-1.2465-.1362-1.8809-.4062-.6506-.2769-1.2638-.6528-1.8232-1.1172a8.3678 8.3678 0 01-1.4824-1.5948c-.4156-.583-.7185-1.181-.9004-1.7773l-.0878-.2862h-1.3955l1.25 6.914.5019-.247c.0269-.0138.0926-.0412.2207-.0762.1213-.0337.2476-.067.377-.1016.1287-.0331.2472-.0629.3603-.0879.1125-.0256.1668-.0273.1856-.0273.4162 0 .8386.0362 1.2548.1093.4388.077.8754.1634 1.2979.2559.4525.0988.9008.187 1.332.2627.4656.0819.937.123 1.4014.123.9925 0 1.909-.1234 2.7246-.3672.8238-.2469 1.5395-.6012 2.127-1.0537.5956-.4594 1.0628-1.0254 1.3896-1.6816.3269-.6569.4932-1.3963.4932-2.1963 0-1.1318-.2798-2.0982-.831-2.872-.53-.7437-1.205-1.392-2.005-1.9277-.7806-.5225-1.6317-.9758-2.5292-1.3476-.8762-.3625-1.6976-.7218-2.4414-1.0674-.7225-.3363-1.3293-.713-1.8037-1.1192-.4213-.36-.6182-.7658-.6182-1.2782 0-.6838.2206-1.1761.6719-1.5049.4831-.3512 1.0846-.5293 1.7871-.5293.5819 0 1.1643.1128 1.7324.334a6.2098 6.2098 0 011.6055.9229c.4919.39.9313.8517 1.3056 1.371.3688.5126.639 1.0716.8028 1.6622l.083.2959h1.3017l-.1181-5.544h-1.374c-.3069 0-.646-.0365-1.0078-.1084a39.7935 39.7935 0 01-1.2344-.2695c-.4488-.105-.9322-.198-1.4385-.2774-.5138-.0806-1.0546-.122-1.6065-.122zM.0125.3477v1.4482h.4873c.5838 0 1.107.249 1.4658.6445.0037.0038.01.0088.0136.0128.0281.0306.0521.0643.0771.0966.0063.0075.0125.013.0176.0205.0207.0269.039.0553.0577.084.178.2625.293.5699.3193.9024.005.0531.0088.1041.0088.1504-.0063.5712 0 1.251 0 1.7997-.0007.5488 0 5.7159.0025 6.5059.0012.7175.0435 2.7676-.0215 3.4257l-.0025.0225a1.1935 1.1935 0 01-.0205.1319l-.001.001a1.5144 1.5144 0 01-.0761.2529c-.1388.3837-.4604.6887-.7823.8437-.0725.035-.1685.0632-.2754.087-.0037.0012-.0062.0037-.01.0037-.1406.0418-.3552.066-.5683.079-.1313.01-.2405.0157-.3018.0157H.2593c-.1463.0025-.2471 0-.2471 0v1.4093l9.3037-.001v-1.4053a18.1332 18.1332 0 01-.2343-.0185l-.1543-.0087c-.2444-.0131-.4147-.0324-.5547-.0586H8.37c-.285-.0363-.6273-.1358-.9092-.3164-.1137-.0657-.2067-.1395-.2773-.2207a.9578.9578 0 01-.087-.1182.0162.0162 0 00-.0037-.005c0-.0006-.001-.0012-.001-.0025-.0037-.005-.0062-.01-.0087-.0146a.702.702 0 01-.0527-.1016 1.365 1.365 0 01-.1143-.3682 5.2745 5.2745 0 01-.0595-.5469c-.03-.4325-.0156-.8193-.0156-.8193v-3.6992l.0332.0127 1.2637-.9785c.5068.6556 1.135 1.5142 1.75 2.3799.1887.263.3797.5332.5722.8076.38.5431.7325 1.0556 1.045 1.5225.285.4237.523.8007.7148 1.127.1644.2624.492.7149.2207 1.0292-.2925.3388-1.5163.463-1.79.463h-.0126v1.3398h9.2548v-1.1738c-1.4837-.19-2.2266-1.1974-3.0028-2.255a15.5332 15.5332 0 01-.4532-.6044l-1.4628-2.0479c-.0025-.0037-.005-.0062-.005-.0062l-3.6445-5.0977.0112-.0087c.1419-.1125.283-.2275.4248-.3438.4563-.3787.8865-.7662 1.3028-1.1406.398-.3581.7736-.6968 1.1142-.9736.0357-.0294.0779-.0635.126-.1035.3275-.272.9377-.7774 2.0283-1.4805l.1533-.0987c.5662-.3668 1.0129-.6568 1.6279-.8593.043-.015.089-.029.1484-.044l.0489-.0147c.0218-.0062.045-.0142.0693-.0205.0763-.0206.2428-.0517.5996-.081l-.0166-.1925V.3466h-8.1924v1.5957h.1114c.0538 0 .2227.0236.4346.0761.0156.0025.0316.0075.0479.0113l.1063.0284c.0338.0087.0675.018.1025.0292.0113.0038.0227.0088.0333.0128.015.0062.03.0132.0469.0195a2.504 2.504 0 01.1396.0556l.0264.0112c.0706.0325.1317.066.1923.1065.0038.0025.0075.0063.0113.0088l.0244.0166c.048.0381.1963.1557.0176.5645-.0319.0837-.1053.2314-.2715.457-.1444.1944-.3212.414-.5293.6533-.4156.485-.8748.9656-1.2617 1.3194l-.1397.127a26.8886 26.8886 0 01-.4072.3779c-.5263.4769-.9977.8984-1.4414 1.289-.3994.3519-.7736.675-1.1142.96-.022.0187-.0412.037-.0605.0527V4.077c0-.3775.01-1.1424.5263-1.708.5157-.5663 1.3548-.6191 1.7529-.6191h.249V.3457H.011zm28.865 4.749l-3.1485.9052.4483 1.165-3.3935 7.7198c-.0013.005-.2079.5601-.4922 1.0733-.0063.01-.0113.0226-.0167.0332a2.6271 2.6271 0 01-.167.2744c-.0687.1182-.152.228-.252.3223-.073.0775-.1472.1396-.2216.1777a1.1241 1.1241 0 01-.0381.0185 1.4714 1.4714 0 01-.4824.1836c-.0738.0169-.145.0284-.21.0284H20.73v1.2851h4.8194v-1.2676s-.5773-.0175-1.088-.3281c-.385-.235-.1216-.8112-.079-.8975a.6285.6285 0 01.0156-.0361l.665-1.7636h3.6631l.4522 1.247.0166.042a6.87 6.87 0 01.1973.5245c.0125.0343.0226.068.0332.1025a.096.096 0 00.005.0176c.015.0506.0315.1014.044.1513.0425.1675.0518.2605.0518.3086 0 .05-.0075.0969-.0274.1407a.3109.3109 0 01-.0508.0722c-.095.1169-.2508.1993-.4277.2568a1.196 1.196 0 01-.1035.0303c-.4337.1144-.9316.1015-.9316.1015v1.2949h6.6513V16.953h-.1055c-.3118 0-.6253-.0723-.9316-.2167-.2675-.1263-.4423-.3164-.5498-.5958l-4.1719-11.044zm40.6825 0l-3.1475.9052.4482 1.165-3.3945 7.7198c-.0012.005-.2078.5601-.4921 1.0733l-.0167.0332a2.6271 2.6271 0 01-.167.2744c-.0687.1182-.151.228-.251.3223-.073.0775-.1482.1396-.2226.1777a1.1241 1.1241 0 01-.0381.0185 1.4714 1.4714 0 01-.4824.1836c-.0731.0169-.145.0284-.21.0284h-.1738v1.2851h4.8194v-1.2676s-.578-.0175-1.088-.3281c-.385-.235-.1215-.8112-.079-.8975.005-.0125.0112-.0242.0156-.0361l.665-1.7636h3.6631l.4522 1.247.0166.042a6.87 6.87 0 01.1973.5245c.0125.0343.0226.068.0332.1025a.096.096 0 00.005.0176c.015.0506.0315.1014.044.1513.0425.1675.0518.2605.0518.3086 0 .05-.0075.0969-.0274.1407a.3054.3054 0 01-.0497.0722c-.095.1169-.2519.1993-.4288.2568a1.134 1.134 0 01-.1035.0303c-.433.1144-.9316.1015-.9316.1015v1.2949h6.6514V16.953h-.1055c-.3119 0-.6254-.0723-.9317-.2167-.2675-.1263-.4423-.3164-.5498-.5958l-4.1719-11.044zm58.1613.0025l-3.1475.9043.4482 1.167-3.3945 7.7187c-.0012.005-.2078.5601-.4922 1.0733-.005.0112-.0112.0226-.0166.0332a2.588 2.588 0 01-.167.2734c-.0694.1188-.1516.2295-.251.3233-.0737.0775-.1483.1406-.2226.1787-.0125.0075-.0257.0112-.0382.0176a1.4767 1.4767 0 01-.4824.1836c-.0731.0163-.145.0283-.21.0283h-.1738v1.286l4.8194-.0009v-1.2676s-.577-.0175-1.087-.3281c-.385-.235-.122-.8113-.08-.8975.005-.0125.0112-.0243.0156-.0361l.665-1.7637h3.6632l.4521 1.2471.0166.042c.0257.0594.1173.28.1973.5244.0112.0344.0226.0692.0332.1035a.096.096 0 00.005.0177c.015.0506.0318.1013.045.1513.0424.1675.0507.2605.0507.3086 0 .05-.0075.0955-.0274.1387v.001a.2854.2854 0 01-.0499.0722c-.095.117-.2518.1994-.4287.2569a1.1665 1.1665 0 01-.1025.0302c-.4337.1144-.9326.1016-.9326.1016v1.295h6.6514v-1.3262h-.1055c-.312 0-.6254-.0734-.9317-.2178-.2675-.1262-.4423-.3153-.5498-.5947l-4.1719-11.0449zm-71.8325.121c-1.5244 0-2.6923.288-3.4717.8556-.8212.5968-1.2382 1.5448-1.2382 2.8173 0 .7481.2137 1.3925.6337 1.915.3894.4838.8797.9072 1.459 1.2578.555.3362 1.1622.6384 1.8047.8984.6087.2469 1.1823.5061 1.706.7705.495.2494.911.5282 1.2373.8301.27.2494.3965.5414.3965.917 0 .285-.0475.5148-.1407.6836-.0906.1644-.2167.2911-.3867.3886-.1931.1113-.4329.1932-.7129.2432-.3037.0556-.6502.083-1.0283.083-.4037 0-.8223-.0901-1.2441-.2695a4.96 4.96 0 01-1.2295-.753 5.677 5.677 0 01-1.003-1.079c-.28-.3932-.4832-.7947-.6045-1.1934l-.0966-.3145h-1.2997l.9463 5.2227.5547-.2725c.015-.0075.0473-.0204.121-.041.0845-.0231.1727-.0471.2608-.0703a9.0554 9.0554 0 01.2461-.0596c.0663-.015.0911-.0156.0918-.0156.2806 0 .5647.0249.8447.0742.3031.0532.605.1124.8975.1768a23.59 23.59 0 00.9355.1836 5.8075 5.8075 0 001.0049.0889c.7062 0 1.3616-.0884 1.9472-.2627.5944-.1782 1.1108-.4342 1.5352-.7617.4343-.335.7759-.7482 1.0146-1.2276.2394-.4794.3604-1.018.3604-1.6006 0-.8225-.2047-1.5275-.6084-2.0938-.3813-.535-.8648-1.001-1.4385-1.3847a10.3852 10.3852 0 00-1.791-.9541c-.6063-.2506-1.1772-.5-1.6953-.7412-.49-.2281-.9-.4818-1.2187-.7549-.2544-.2175-.3731-.4617-.3731-.7686 0-.428.1276-.7201.4014-.9189.3068-.2231.692-.336 1.1445-.336.3831 0 .7686.0746 1.1455.2208a4.1653 4.1653 0 011.0762.6181c.3306.2625.627.5735.8789.9229.2456.3406.4248.7127.5342 1.1064l.0908.3262h1.207l-.0868-4.1865h-1.126c-.2031 0-.428-.0231-.668-.0712a25.6695 25.6695 0 01-.8544-.1866 13.5101 13.5101 0 00-1.0157-.1963 7.4128 7.4128 0 00-1.1445-.0868zm24.96 0c-1.5244 0-2.6927.2877-3.4727.8546-.8206.5969-1.2373 1.5452-1.2373 2.8184 0 .748.2138 1.3927.6338 1.914.3881.483.8784.9062 1.459 1.2587.5556.3356 1.1628.6384 1.8048.8984.6075.2463 1.1807.5062 1.705.7705.495.2494.9121.5289 1.2384.8301.27.25.3955.5404.3955.916 0 .2857-.0465.5159-.1397.6846-.0912.1644-.2177.2918-.3877.3887-.1925.1112-.4319.1935-.7119.2441-.3044.055-.6502.082-1.0283.082-.4038 0-.8223-.0901-1.2441-.2695a4.9652 4.9652 0 01-1.2295-.753 5.718 5.718 0 01-1.004-1.079c-.2793-.3938-.4822-.7943-.6035-1.1924l-.0976-.3155h-1.2997l.9472 5.2227.5547-.2725c.015-.0075.048-.0204.1212-.041.0843-.0231.172-.0471.2607-.0702a6.861 6.861 0 01.246-.0597c.0663-.0156.0918-.0156.0918-.0156.2807 0 .5651.0249.8457.0743.3032.053.604.1123.8965.1767.305.0669.6202.1286.9346.1836a5.8133 5.8133 0 001.0059.0889c.7062 0 1.3612-.0884 1.9462-.2627.5944-.1781 1.1118-.4349 1.5361-.7617.435-.3357.776-.7482 1.0147-1.2276.2387-.4793.3603-1.0184.3603-1.6015 0-.8225-.2052-1.5258-.6084-2.0927-.3818-.535-.8653-1.001-1.4385-1.3848a10.4116 10.4116 0 00-1.792-.954c-.6062-.2507-1.1768-.5-1.6943-.7413-.4913-.2281-.9013-.4817-1.2188-.7549-.255-.2175-.373-.4616-.373-.7685 0-.4275.1276-.7196.4013-.919.3069-.223.691-.3359 1.1436-.3359.3831 0 .7696.0739 1.1465.2207a4.143 4.143 0 011.0761.6191c.3294.2613.6258.5713.879.922.2456.3412.4254.7139.5341 1.1064l.0899.3261h1.207l-.086-4.1855h-1.126c-.2037 0-.428-.025-.668-.0732a26.407 26.407 0 01-.8544-.1856 13.7678 13.7678 0 00-1.0156-.1962 7.4186 7.4186 0 00-1.1446-.087zm63.8737.2472V6.852l.4395.0112c.37.0113.6615.054.8671.127.1713.0612.2994.1442.3819.2461.0875.1088.1477.2541.1777.4316.0394.23.0586.5038.0586.8125V15.34c0 .3331-.0192.6183-.0586.8477-.03.175-.0879.3147-.1728.416-.0782.0944-.202.1678-.3682.2197-.2162.0663-.5194.111-.8994.1328l-.4258.0244v1.3028l11.5556-.0075.9903-3.966-1.081-.7245-.0088.0176c-.2032.5337-.8033 1.8167-1.6358 2.2861-.9881.5569-2.1707 1.0113-4.5107.7363v-4.16h.377c1.2087 0 2.2052.8827 2.3514 2.0234h1.206V9.1381h-1.2128c-.1775.9369-.931 1.676-1.8897 1.8515-.0437.0075-.1137.0256-.2431.04l-.082.0075a3.372 3.372 0 01-.3437.0191h-.1622V7.0445l1.381.001c.36 0 1.618-.0377 2.4618.5205.9694.6425 1.2607 1.8065 1.3565 2.3027l1.2256-.2168-.1826-4.1797-11.5528-.0038zm-35.8975.0025l-.2324 4.66h1.3417l.0713-.3564c.1256-.625.2926-1.1176.4951-1.4638.1894-.325.4223-.5733.6904-.7383.2769-.17.6032-.2828.9688-.334.29-.04.4775-.0663.8281-.0781v8.1787c0 .3863-.017.7023-.0507.9404-.025.1744-.0775.3088-.1563.3995-.0737.085-.2063.1546-.3838.2021-.2419.0644-.588.1146-1.0273.1484l-.4541.0313v1.2197l7.457.001v-1.2207l-.4551-.0313c-.4394-.0337-.7855-.084-1.0273-.1484-.1782-.0475-.31-.1171-.3838-.2021-.0788-.0907-.1313-.2247-.1563-.3985-.0337-.2394-.0507-.5564-.0507-.9414V7.1593c.3512.0125.5384.038.8271.078.3675.0513.6938.164.9707.334.2675.1638.4989.4121.6895.7384.2019.3462.3688.8388.495 1.4638l.0723.3565h1.2667l-.2325-4.6601H108.825zm23.6513 0l-.2325 4.66h1.3418l.0712-.3564c.1263-.625.293-1.117.4961-1.4638.1894-.3244.4213-.5733.6895-.7383.2768-.17.6034-.2828.9697-.334.2894-.04.4769-.0663.8281-.0781v8.1787c0 .3838-.017.7002-.0507.9414-.025.1731-.0778.3075-.1553.3975-.075.0856-.2092.1562-.3867.2031-.2419.0644-.5866.1146-1.0254.1484l-.455.0313v1.2197l7.457.001v-1.2207l-.4542-.0313c-.44-.0337-.7854-.084-1.0273-.1484-.1775-.0475-.311-.1167-.3848-.2012-.0787-.0918-.1312-.2263-.1562-.3994-.0338-.2375-.0508-.5539-.0508-.9414V7.1593c.3513.0125.5378.038.8272.078.3675.0513.6938.164.9707.334.2681.1645.4994.4127.6894.7384.2025.3468.3695.8398.4951 1.4648l.0723.3555h1.2676l-.2324-4.6601h-11.5645zm-82.2013.0878l-5.3466.0075v1.2549c.4062.0581 1.1842.1606 1.4404.4356.2618.28.3605.6947.4755 1.994.0007.0038.0004.0063.001.01.0531.6045.0865 1.3683.1065 2.0802.0013.0462.0038.0918.005.1387.0181.62.0274 1.2274.0274 1.8037v.1999c-.89-1.0825-2.5243-2.9933-3.9961-4.7139-1.1294-1.3193-2.1045-2.4598-2.5733-3.0273l-.1426-.1729-4.7363-.0088V6.787c1.0862.2625 1.6942.5918 2.1992 1.0049 0 .0125.0025 1.1958-.0185 1.8789l-.0062.6826c-.01.9493-.0275 2.6955-.0382 3.7011a15.303 15.303 0 01-.0025.1807c-.0006.1169-.0037.222-.0037.3076v.0087l-.001.0723c0 .15-.0025.289-.0062.4209-.0063.3156-.0207.5785-.0625.7998v.0025c-.0007.0025-.0025.005-.0025.0075-.0088.0456-.019.09-.0303.1318-.0037.0113-.0062.023-.01.0342-.0662.2225-.1746.3981-.3564.54-.4675.3662-1.2199.385-1.6993.455v1.2618l5.8985.001v-1.2597c-.1019-.0157-.2169-.0318-.3369-.0518l-.0449-.0062a3.5206 3.5206 0 01-.3115-.0605c-.1862-.042-.3763-.0977-.5557-.1758-.3825-.1669-.6578-.2543-.7441-1.0049a14.1507 14.1507 0 01-.0112-.1055 3.9383 3.9383 0 01-.01-.1357c-.0013-.0388-.0038-.0814-.0063-.127-.0006-.0156-.0012-.0339-.0025-.0507-.0012-.0313-.0012-.0614-.0025-.0958-.0006-.0212-.0012-.0462-.0025-.0694-.0006-.0318-.0025-.0632-.0025-.0976-.0006-.0219-.0003-.0459-.001-.0684-.0006-.0387-.0025-.0775-.0025-.1181-.0006-.0181-.0003-.0379-.001-.0566l-.0037-.1485c-.0006-.013 0-.0275 0-.04a8.8517 8.8517 0 01-.0025-.1845.0309.0309 0 00-.001-.0075c-.0012-.1482-.005-.305-.0062-.4668-.0206-1.8169-.0113-4.3691-.0113-4.5098v-.0087l.0038.0112c.0125.015.0275.0323.04.0479 1.4587 1.6856 3.664 4.459 3.664 4.459a8957.2234 8957.2234 0 013.627 4.4258l.0752.0917h1.7657V9.8111c0-.3044.0037-.5835.0136-.836.005-.1394.0112-.2726.0195-.3945l.0025-.0284c.0006-.0075.0012-.0162.0025-.0244.0006-.0075.0012-.015.0025-.0225a7.2775 7.2775 0 01.0225-.2705c.0125-.1237.0277-.2219.0459-.3056.0087-.047.0167-.0928.0273-.1397a1.1192 1.1192 0 01.0435-.1725c.0013-.0063.0063-.013.0075-.0185.1207-.325.3989-.5756.7452-.6631a.1016.1016 0 01.0156-.0063.1005.1005 0 00.0136-.0025c.03-.0062.0625-.0087.0938-.0127a3.0807 3.0807 0 01.076-.0113c.0038 0 .0076-.001.0113-.001a.0759.0759 0 00.0113-.0024c.0231-.0025.0492-.0038.0761-.0063.2163-.0175.457-.024.5332-.0284V5.556zM26.9313 9.0411l1.2255 3.3789h-2.501l1.2754-3.3789zm40.6825 0l1.2255 3.3789h-2.501l1.2754-3.3789zm58.1612.0038l1.2256 3.378h-2.501l1.2754-3.378zM0 22.1699v.8632h156.2625V22.17zm105.2213 4.6542c-1.4482 0-2.3103.5001-2.7472.9014-.425.39-.6617.8288-.7617 1.377-.0375.243-.0499.5226-.0499.5957 0 .3531.0748.6346.1123.7558.1125.3169.2875.536.375.6328.4362.512 1.0242.7427 1.6611.9014.4119.0969.8362.17 1.248.2188.787.11 1.96.1345 1.96.9257 0 .6575-.873.9022-.9355.9141-.2869.085-.5875.085-.6875.085-.7369 0-1.5851-.2553-2.1601-.7178-.1744-.1343-.3492-.33-.3867-.3662l-1.6739 1.0234c.3494.402.4617.5235.6992.7178.5869.4632 1.5731 1.0362 3.3213 1.0362.3 0 .6008-.0247.8877-.0615.4243-.0488 2.0096-.2312 2.7715-1.583.3243-.5844.3496-1.0967.3496-1.34 0-.4387-.113-.7676-.1748-.9257-.4494-1.0475-1.5857-1.2665-1.8975-1.3271-.487-.11-.9746-.2072-1.4747-.2803-.8237-.1212-1.3103-.1095-1.6103-.4258-.0625-.0612-.1866-.2193-.1866-.4512 0-.4012.4118-.913 1.3105-.913.375 0 .7118.0976.8243.122.6618.2068.9984.475 1.4853.9375l1.624-1.1328c-.5-.4263-.6746-.5723-.9746-.7666-1.1987-.792-2.3722-.8536-2.9091-.8536zm-86.8388.207v8.5986h2.123l-.0753-5.3222 3.1963 5.3222h2.1601v-8.5986h-2.1094l.087 5.3955-3.2217-5.3955h-2.1601zm30.27 0l3.0215 8.5986h2.248l3.0586-8.5986H54.634l-1.8115 6.1143-1.8223-6.1143h-2.3476zm18.2437 0v8.5986h6.918v-1.6923h-4.7207v-2.0469h4.0332v-1.6319h-4.0332v-1.5712h4.3212V27.031zm17.1088 0v8.5986h2.2226v-3.0693h1.373l1.7608 3.0693h2.4228l-2.036-3.4346c.3624-.1337.55-.2197.7118-.3047.1375-.085.2881-.1945.4131-.3164.2994-.28.6856-.7914.6856-1.7538 0-.7063-.2246-1.2053-.3496-1.4365-.687-1.23-2.0844-1.3155-2.4844-1.34-.2494-.0124-.4997-.0127-.749-.0127h-3.9708zm63.7612 0l3.3097 4.5918v4.0068h2.1718v-4.0673l3.334-4.5313h-2.5087l-1.8858 2.9111-1.8985-2.911zm-147.6.001V31.83c0 1.0718.0257 2.1308.875 2.959.9988.9743 2.4725 1.0361 2.8594 1.0361.4994 0 2.8218-.1342 3.5586-2.1435.2125-.5969.2373-1.2178.2373-1.8515v-4.7979h-2.211v5.3458c0 .4869-.0125.9984-.4238 1.3515-.3119.2681-.675.3174-1.0869.3174-.15 0-.737.0002-1.1738-.3291-.3494-.2675-.4112-.5607-.4112-1.3282v-5.3573H.1662zm36.3775 0v8.5976h2.1983v-8.5976zm83.005 0v8.5976h2.1983v-8.5976zm12.214 0v1.6924h2.2978v6.9052h2.2216v-6.9052h2.2851V27.032h-6.8047zM86.22 28.6268h1.873c.3869 0 1.2735.025 1.2735 1.1455 0 .2188-.0251.8762-.7363 1.1075-.25.0856-.4994.086-.587.086H86.22v-2.3389z"/></svg>